<svg width="24" height="24" viewBox="0 0 24 24" fill="none" xmlns="http://www.w3.org/2000/svg">
<path d="M12 0C8.7 0 6 2.7 6 6C6 9.3 8.7 12 12 12C15.3 12 18 9.3 18 6C18 2.7 15.3 0 12 0ZM12 10.5C9.525 10.5 7.5 8.475 7.5 6C7.5 3.525 9.525 1.5 12 1.5C14.475 1.5 16.5 3.525 16.5 6C16.5 8.475 14.475 10.5 12 10.5Z" fill="black"/>
<path d="M5.625 14.25C7.5 15.675 9.675 16.425 12 16.425C14.325 16.425 16.5 15.675 18.375 14.325L20.25 16.35V22.425H3.75V16.275L5.625 14.25ZM5.625 12.75C5.25 12.75 4.8 12.9 4.5 13.2L2.625 15.225C2.4 15.525 2.25 15.9 2.25 16.275V23.925H21.75V16.275C21.75 15.9 21.5999 15.525 21.2999 15.225L19.4249 13.2C19.1249 12.9 18.75 12.75 18.375 12.75C18.075 12.75 17.775 12.825 17.475 13.05C15.975 14.175 14.1 14.925 12 14.925C9.975 14.925 8.02496 14.25 6.52496 13.05C6.22496 12.825 5.925 12.75 5.625 12.75Z" fill="black"/>
</svg>
